<?xml version="1.0" encoding="UTF-8"?>
<svg id="Layer_2" data-name="Layer 2" xmlns="http://www.w3.org/2000/svg" viewBox="0 0 1000 1000">
  <defs>
    <style>
      .cls-1 {
        fill: #fff;
      }

      .cls-2 {
        fill: #4c8fc2;
      }
    </style>
  </defs>
  <g id="Layer_1-2" data-name="Layer 1">
    <rect class="cls-2" width="1000" height="1000" rx="100" ry="100"/>
    <g>
      <path class="cls-1" d="m240.63,418.14c0,12.96-4.8,30.81-11.86,54.78l-5.07,18.41,16.01-10.44c30.43-21.33,48.81-29.33,60.97-29.33,13.83,0,28.12,9.87,28.12,29.49,0,24.96-26.7,32.06-78.27,32.93l-19.28.9,15.21,12.08c36.09,27.77,48.6,41.37,48.6,58.6,0,13.57-12.63,27.69-28.29,27.69-23.53,0-34.16-24.4-48.5-65.83l-7.31-18.01-6.87,18.01c-16.07,47.06-28.44,65.4-48.93,65.4-16.53,0-28.29-14.99-28.29-27.69,0-18.96,17.27-34.73,49.03-58.17l15.21-12.08-18.84-.9c-54.76-.44-78.27-8.3-78.27-33.36,0-19.63,14.73-29.49,28.29-29.49,16.4,0,34.27,11.04,60.81,29.77l16.01,10.44-5.07-18.41c-7.66-25.27-11.26-43.81-11.26-54.78,0-17.16,9.7-31.39,28.63-31.39s29.23,14.23,29.23,31.39Z"/>
      <path class="cls-1" d="m529.23,418.14c0,12.96-4.8,30.81-11.86,54.78l-5.07,18.41,16.01-10.44c30.43-21.33,48.8-29.33,60.97-29.33,13.83,0,28.12,9.87,28.12,29.49,0,24.96-26.7,32.06-78.27,32.93l-19.28.9,15.21,12.08c36.09,27.77,48.6,41.37,48.6,58.6,0,13.57-12.63,27.69-28.29,27.69-23.53,0-34.16-24.4-48.5-65.83l-7.31-18.01-6.87,18.01c-16.07,47.06-28.44,65.4-48.93,65.4-16.53,0-28.29-14.99-28.29-27.69,0-18.96,17.27-34.73,49.03-58.17l15.21-12.08-18.84-.9c-54.76-.44-78.27-8.3-78.27-33.36,0-19.63,14.73-29.49,28.29-29.49,16.4,0,34.27,11.04,60.81,29.77l16.01,10.44-5.07-18.41c-7.66-25.27-11.26-43.81-11.26-54.78,0-17.16,9.7-31.39,28.63-31.39s29.22,14.23,29.22,31.39Z"/>
      <path class="cls-1" d="m817.82,418.14c0,12.96-4.8,30.81-11.86,54.78l-5.07,18.41,16.01-10.44c30.43-21.33,48.8-29.33,60.97-29.33,13.83,0,28.12,9.87,28.12,29.49,0,24.96-26.7,32.06-78.27,32.93l-19.28.9,15.21,12.08c36.09,27.77,48.6,41.37,48.6,58.6,0,13.57-12.63,27.69-28.29,27.69-23.53,0-34.16-24.4-48.5-65.83l-7.31-18.01-6.87,18.01c-16.07,47.06-28.44,65.4-48.93,65.4-16.53,0-28.29-14.99-28.29-27.69,0-18.96,17.27-34.73,49.03-58.17l15.21-12.08-18.84-.9c-54.76-.44-78.27-8.3-78.27-33.36,0-19.63,14.73-29.49,28.29-29.49,16.4,0,34.27,11.04,60.81,29.77l16.01,10.44-5.07-18.41c-7.66-25.27-11.26-43.81-11.26-54.78,0-17.16,9.7-31.39,28.63-31.39s29.22,14.23,29.22,31.39Z"/>
    </g>
  </g>
</svg>